<!DOCTYPE svg PUBLIC "-//W3C//DTD SVG 1.1//EN" "http://www.w3.org/Graphics/SVG/1.1/DTD/svg11.dtd">
<!-- Uploaded to: SVG Repo, www.svgrepo.com, Transformed by: SVG Repo Mixer Tools -->
<svg width="800px" height="800px" viewBox="0 0 60 60" xmlns="http://www.w3.org/2000/svg" fill="#000000">
<g id="SVGRepo_bgCarrier" stroke-width="0"/>
<g id="SVGRepo_tracerCarrier" stroke-linecap="round" stroke-linejoin="round"/>
<g id="SVGRepo_iconCarrier">
<rect fill="#ffffff" height="60" rx="10" width="60"/>
<path d="M36,52H16a4,4,0,0,1-4-4V12a4,4,0,0,1,4-4H44a4,4,0,0,1,4,4V40Z" fill="#ffffff"/>
<path d="M36,53.5H16A5.506,5.506,0,0,1,10.5,48V12A5.506,5.506,0,0,1,16,6.5H44A5.506,5.506,0,0,1,49.5,12V40a1.5,1.5,0,0,1-.439,1.061l-12,12A1.5,1.5,0,0,1,36,53.5ZM16,9.5A2.5,2.5,0,0,0,13.5,12V48A2.5,2.5,0,0,0,16,50.5H35.379L46.5,39.379V12A2.5,2.5,0,0,0,44,9.5Z" fill="#000000"/>
<path d="M16,8H44a4,4,0,0,1,4,4v4a0,0,0,0,1,0,0H12a0,0,0,0,1,0,0V12A4,4,0,0,1,16,8Z" fill="#ff0000"/>
<path d="M48,17.5H12A1.5,1.5,0,0,1,10.5,16V12A5.506,5.506,0,0,1,16,6.5H44A5.506,5.506,0,0,1,49.5,12v4A1.5,1.5,0,0,1,48,17.5Zm-34.5-3h33V12A2.5,2.5,0,0,0,44,9.5H16A2.5,2.5,0,0,0,13.5,12Z" fill="#000000"/>
<path d="M40,25.5H20a1.5,1.5,0,0,1,0-3H40a1.5,1.5,0,0,1,0,3Z" fill="#000000"/>
<path d="M40,33.5H20a1.5,1.5,0,0,1,0-3H40a1.5,1.5,0,0,1,0,3Z" fill="#000000"/>
<path d="M40,41.5H20a1.5,1.5,0,0,1,0-3H40a1.5,1.5,0,0,1,0,3Z" fill="#000000"/>
<path d="M36,53.5A1.5,1.5,0,0,1,34.5,52V44A5.506,5.506,0,0,1,40,38.5h8a1.5,1.5,0,0,1,0,3H40A2.5,2.5,0,0,0,37.5,44v8A1.5,1.5,0,0,1,36,53.5Z" fill="#000000"/>
<path d="M12,17.5A1.5,1.5,0,0,1,10.5,16V12A5.506,5.506,0,0,1,16,6.5H44a1.5,1.5,0,0,1,0,3H16A2.5,2.5,0,0,0,13.5,12v4A1.5,1.5,0,0,1,12,17.5Z" fill="#000000"/>
<path d="M48,17.5H12a1.5,1.5,0,0,1,0-3H48a1.5,1.5,0,0,1,0,3Z" fill="#000000"/>
</g>
</svg>